<?xml version="1.0" standalone="no"?>
<!DOCTYPE svg PUBLIC "-//W3C//DTD SVG 20010904//EN"
 "http://www.w3.org/TR/2001/REC-SVG-20010904/DTD/svg10.dtd">
<svg version="1.0" xmlns="http://www.w3.org/2000/svg"
 width="253.000000pt" height="253.000000pt" viewBox="0 0 253.000000 253.000000"
 preserveAspectRatio="xMidYMid meet">
<metadata>
Created by potrace 1.14, written by Peter Selinger 2001-2017
</metadata>
<g transform="translate(0.000000,253.000000) scale(0.100000,-0.100000)"
fill="#000000" stroke="none">
<path d="M0 1265 l0 -1265 1265 0 1265 0 0 1265 0 1265 -1265 0 -1265 0 0
-1265z m1451 891 c222 -34 350 -85 458 -182 28 -25 55 -43 61 -39 5 3 10 35
10 71 l0 64 60 0 60 0 0 -200 0 -200 -63 0 -64 0 -24 53 c-34 74 -157 195
-234 231 -113 53 -195 68 -385 74 -315 8 -490 -48 -651 -209 -90 -89 -145
-191 -180 -334 -32 -129 -32 -344 0 -465 71 -266 241 -442 493 -509 174 -47
351 -48 543 -5 270 62 415 249 426 554 l4 95 -345 5 -345 5 -3 68 -3 67 408
-2 408 -3 3 -380 c2 -209 0 -417 -3 -463 l-7 -83 -51 3 -52 3 -3 133 c-2 81
-6 132 -13 132 -5 0 -35 -27 -65 -59 -131 -142 -323 -217 -587 -228 -484 -22
-837 210 -941 618 -85 334 -5 700 203 921 198 211 544 315 882 264z"/>
</g>
</svg>
